<svg xmlns="http://www.w3.org/2000/svg" viewBox="0 0 48 48" width="48" height="48">
  <defs>
    <clipPath id="fc">
      <path d="M6,4 h30 a6,6 0 0 1 6,6 v20 a6,6 0 0 1 -6,6 h-16 l-7,7 v-7 h-7 a6,6 0 0 1 -6,-6 v-20 a6,6 0 0 1 6,-6 z"/>
    </clipPath>
  </defs>

  <!-- Speech bubble -->
  <path d="M6,4 h30 a6,6 0 0 1 6,6 v20 a6,6 0 0 1 -6,6 h-16 l-7,7 v-7 h-7 a6,6 0 0 1 -6,-6 v-20 a6,6 0 0 1 6,-6 z" fill="#1B4965"/>

  <!-- Zellige pattern background -->
  <g clip-path="url(#fc)" opacity="0.25">
    <g fill="none" stroke="#D4A24E" stroke-width="0.7">
      <polygon points="10,8 13,5 16,8 13,11"/>
      <polygon points="22,8 25,5 28,8 25,11"/>
      <polygon points="34,8 37,5 40,8 37,11"/>
      <polygon points="6,16 9,13 12,16 9,19"/>
      <polygon points="16,16 19,13 22,16 19,19"/>
      <polygon points="28,16 31,13 34,16 31,19"/>
      <polygon points="10,24 13,21 16,24 13,27"/>
      <polygon points="22,24 25,21 28,24 25,27"/>
      <polygon points="34,24 37,21 40,24 37,27"/>
      <polygon points="6,32 9,29 12,32 9,35"/>
      <polygon points="16,32 19,29 22,32 19,35"/>
      <polygon points="28,32 31,29 34,32 31,35"/>
    </g>
  </g>

  <!-- Central 8-pointed Moroccan star -->
  <g transform="translate(22, 18)">
    <polygon points="0,-8 2.3,-2.3 8,0 2.3,2.3 0,8 -2.3,2.3 -8,0 -2.3,-2.3" fill="#D4A24E" opacity="0.95"/>
    <polygon points="0,-5.5 5.5,0 0,5.5 -5.5,0" fill="#C75B2F" opacity="0.85"/>
    <circle cx="0" cy="0" r="2" fill="#D4A24E"/>
  </g>
</svg>